<svg id="logo-txt" data-name="Слой 1" xmlns="http://www.w3.org/2000/svg" viewBox="0 0 300 99.3"><path d="M106 33.1c-5.13 1-10 2.21-15 2.91C81.75 37.34 75.51 31 82 21c-7.31-.62-10.69 4.75-7.95 13a103.24 103.24 0 0 0 5 12.31c10.16 21.11-2.38 44.4-24.53 49.29-9 2-17.68 1.68-25.66-1.88-14.18-6.32-13.54-21.57-6.43-31.74 4.23-6 10.44-9.36 17.57-10.55a8.21 8.21 0 0 1 6.49 2.11c1.14 1.28 1.06 4.4.42 6.34-1.57 4.77-5.6 7.29-10.27 8.27-4.12.86-5.49-2.14-5.93-5.61C22.14 64.2 20.22 80.77 28.14 87c11.86 9.32 31.6 3.74 37-10.69 3.7-9.86 2.7-19.31-1.67-28.66-3.33-7.13-5-14.58-3.41-22.5-13.47-3.4-25.8-2.36-37.06 5.14-8.56 5.71-10.62 16.55-3 25.6-2.27-.19-5 .36-6.73-.69-6.83-4.15-10.7-10.5-10.61-18.53C2.74 29.24 7 24 13.67 21.07a28 28 0 0 1 9.15-2 132.94 132.94 0 0 1 34.83 2.37A4.46 4.46 0 0 0 63 19c5.1-8.82 12.9-13.65 23-15.58 5.16-1 9.9-1.68 15.12 0 6.91 2.19 11.42 7.07 11.39 14.24 0 2.5.48 3.92 2.85 5.44 3.9 2.5 1.69 6.47.92 9.81-.43 1.88-1.55 3.61-2.67 6.11 2.49-.59 4.2-1.05 5.94-1.39 6.36-1.26 10.07 2.2 8.35 8.54-1.56 5.77-4.12 11.28-6.31 16.87-1.22 3.1-.54 4.18 2.78 3.74 3.58-.47 5-3.05 6.48-6.1 2.69-5.78 5.49-11.68 9.27-16.68 3.55-4.76 9.17-6.82 15.3-6.59 5.37.2 8.51 3.23 9 8.52 1 10.08-8.21 23.07-17.93 26.32-6.82 2.28-10.71 1.72-15.71-4.95-2.22 1.7-4.27 3.71-6.7 5a17.9 17.9 0 0 1-7.28 2.2c-5.35.25-8.26-4-6.33-9 1.81-4.66 4.09-9.14 5.75-13.85.66-1.87.91-5.53.09-6-2.89-1.49-5.35.48-6.56 3.13-2.62 5.72-5 11.55-7.23 17.44-.33.89.65 2.48 1.36 3.51 1.28 1.86 1.4 3.5-1.1 3.75-2.85.28-6.2.63-8.49-.61-1.26-.68-1.56-4.77-.94-6.94 1.67-5.87 4-11.58 6.2-17.29 2.09-5.24 4.37-10.46 6.45-15.54zM76 17.47a9.85 9.85 0 0 0 2.17-.21c4.51-1.79 9-3.7 13.52-5.37.82-.3 2 .35 3 .56a17.44 17.44 0 0 1-1.62 2.41c-2.58 2.74-5.84 5.06-7.7 8.21-3 5-.15 9.3 5.72 9 6.38-.28 11.09-2.87 14.15-9.22 3.33-6.91 1-14.2-6.49-16.13C89.72 4.41 80.86 8.41 76 17.47zm63.76 48c.41 1.13.55 3 1.43 3.49A4.16 4.16 0 0 0 145 68c6.15-6.75 9.42-14.87 10.57-23.83.12-.9-.69-2.62-1.34-2.76a4.21 4.21 0 0 0-3.29 1c-6.39 6.25-9.31 14.19-11.14 23.04zM256.33 68.58c-9.56 7.67-15 8-19.88 1.51-3.25 1.46-6.32 3.42-9.66 4.22-6.31 1.5-10.09-2.35-8.27-8.55 1.65-5.6 4.32-10.89 6.4-16.37.4-1 .64-2.87.08-3.37a3.7 3.7 0 0 0-3.5-.41 13.72 13.72 0 0 0-4.64 4.72c-2.19 4.47-3.85 9.21-5.67 13.85-.86 2.19-1.57 4.33.88 6.21.45.35.1 2.71 0 2.72-3 .32-6.26 1.11-9.13.44-3.24-.75-2.95-4.16-2.12-6.55 2.61-7.56 5.54-15 8.45-22.48 1.82-4.66 3.94-9.22 5.65-13.92.37-1-.41-2.47-.72-3.7s-1.21-2.64-.9-3.68c.21-.71 2-1.24 3.19-1.31 7.71-.47 9.84 2 7.89 9.25-.7 2.59-1.74 5.08-2.8 8.1a60.19 60.19 0 0 1 6.18-1.75c6.43-1.1 10.32 3.71 7.91 9.76-2 4.9-4.06 9.75-6 14.65a33.25 33.25 0 0 0-1.07 4c5.46 1.7 8 .28 11-6.17 1.73-3.76 3.13-7.68 4.66-11.53.91-2.3 1.78-4.34-1.08-6.33-1.9-1.33-.45-4.36 2.3-4.33 2.9 0 7.05.06 8.36 1.81 1.49 2 1.15 6.07.32 8.86-1.5 5-4 9.7-6 14.59-.39 1-.61 2.53-.1 3.2s2.12.92 3.11.7c3.31-.74 5.22-2.7 6.24-6.2 2.58-8.83 6.52-17.08 15.66-20.9 3.35-1.4 7.39-1.39 11.14-1.62 4.11-.26 8.24-.06 13.22-.06L286.2 65.81c4.95 2.55 7.29-.95 10.16-2.89 1 4.06-.84 6.55-7.11 10.05-5.06 2.83-9 2.08-13.74-2.59-13.05 5.82-13.64 5.77-19.18-1.8zm9.67-5.36c.09 4.22 2.77 6.35 5.44 4.82 2.24-1.29 4.69-3.14 5.76-5.36A157.44 157.44 0 0 0 283.65 46c.49-1.41.11-3.12.13-4.7-1.76.24-3.89-.07-5.23.81-7.86 5.23-9.8 13.89-12.55 21.11zM171.47 72.51c-1.22 2.9-2.75 6.26-4 9.73-.23.66.65 1.95 1.34 2.62 1.94 1.91 1.46 3.66-.81 4.11-2.67.53-6 1-8.13-.19-1.41-.79-2.11-4.77-1.49-6.85 1.82-6.15 4.39-12.07 6.77-18 2.05-5.17 4.32-10.26 6.31-15.45.84-2.19 1.94-4.43-1.31-6.23-1.94-1.07-.29-4.44 2.48-4.73 3.94-.41 7.93-.52 10.29 4.26 1.63-1 3-1.87 4.48-2.69 3.49-2 7.1-2.54 10.62-.24 3.35 2.18 3.63 5.66 3.25 9.2-1.11 10.18-8.34 22.44-21.77 25.33-2.19.42-4.67-.48-8.03-.87zm2.13-2.91c2.76-.42 5.38 0 6.71-1.15A32.87 32.87 0 0 0 192 47.73c.51-3.33-2.28-5.33-5.23-3.88a11.83 11.83 0 0 0-5.09 4.73c-2.54 4.93-4.55 10.13-6.65 15.28a45.78 45.78 0 0 0-1.43 5.74z"/><path d="M257.25 21.82c3 .57 5.2 2.08 5.23 5.58s-1.89 5.38-5.21 5.68-5.64-2.2-5.56-5.68 2-5.19 5.54-5.58z"/></svg>