<svg id="phone" xmlns="http://www.w3.org/2000/svg" viewBox="0 0 50 64"><title>phone</title><path d="M49.37,46.13A11.29,11.29,0,0,1,49,48.56a14.35,14.35,0,0,1-.73,2.37q-.73,1.74-4.23,3.67a12.8,12.8,0,0,1-8.28,1.64,15.17,15.17,0,0,1-2-.43q-1.08-.3-1.63-.5l-1.92-.71L28.56,54a31.51,31.51,0,0,1-6.06-2.87,52,52,0,0,1-9.14-7.47A52,52,0,0,1,5.88,34.5,31.15,31.15,0,0,1,3,28.44q-.1-.31-.62-1.7t-.7-1.93q-.17-.54-.5-1.62a11.31,11.31,0,0,1-.44-2,17.61,17.61,0,0,1-.12-1.84,13.38,13.38,0,0,1,1.76-6.43Q4.33,9.43,6.07,8.7A12.91,12.91,0,0,1,8.43,8a12.19,12.19,0,0,1,2.44-.35,2.07,2.07,0,0,1,.73.1q.62.21,1.84,2.64.38.66,1,1.87t1.21,2.2q.56,1,1.08,1.85l.61.87a7.79,7.79,0,0,1,.74,1.22,2.64,2.64,0,0,1,.24,1,2.91,2.91,0,0,1-1,1.74A15.09,15.09,0,0,1,15.22,23a17,17,0,0,0-2.14,1.84,2.85,2.85,0,0,0-1,1.59,2.3,2.3,0,0,0,.17.78q.17.47.29.71t.48.83q.37.59.4.66a36.49,36.49,0,0,0,6,8.13,36.18,36.18,0,0,0,8.14,6l.65.4q.59.37.83.48t.71.29a2.53,2.53,0,0,0,.78.18,2.64,2.64,0,0,0,1.6-1A21.14,21.14,0,0,0,34,41.79a17.68,17.68,0,0,1,1.9-2.15,2.8,2.8,0,0,1,1.74-1,2.27,2.27,0,0,1,1,.24,9.47,9.47,0,0,1,1.23.75l.86.61,1.85,1.07,2.2,1.21q1.22.66,1.87,1,2.42,1.21,2.63,1.83A2.07,2.07,0,0,1,49.37,46.13Z"/></svg>